<?xml version="1.0" ?><!DOCTYPE svg  PUBLIC '-//W3C//DTD SVG 1.1//EN'  'http://www.w3.org/Graphics/SVG/1.1/DTD/svg11.dtd'><svg enable-background="new 0 0 512 512" height="512px" version="1.1" viewBox="0 0 512 512" width="512px" xml:space="preserve" xmlns="http://www.w3.org/2000/svg" xmlns:xlink="http://www.w3.org/1999/xlink"><g id="Ebene_3"/><g id="Ebene_1"><path d="M256,58C146.822,58,58,146.822,58,256s88.822,198,198,198s198-88.822,198-198S365.178,58,256,58z M441.779,264.99   c-48.877-12.182-95.451-13.966-138.599-5.3c-7.847-19.69-15.908-37.754-23.789-54.061c4.435-1.747,8.815-3.555,13.134-5.43   c39.489-17.146,74.093-39.703,102.975-67.081C424.423,165.913,442,208.939,442,256C442,259.014,441.922,262.01,441.779,264.99z    M387.286,124.37c-27.827,26.387-61.215,48.158-99.356,64.742c-4.548,1.978-9.172,3.874-13.854,5.706   c-5.191-10.349-10.259-19.897-15.083-28.602c-25.135-45.353-47.479-75.318-57.578-88.038C218.683,72.867,237.013,70,256,70   C307.193,70,353.62,90.791,387.286,124.37z M189.356,82.355c7.837,9.629,32.032,40.762,59.141,89.678   c4.571,8.248,9.366,17.279,14.276,27.026c-25.318,9.07-52.413,16.072-80.876,20.881c-51.747,8.743-94.141,7.786-109.621,7.002   C82.723,160.63,128.334,105.854,189.356,82.355z M70,256c0-5.766,0.278-11.468,0.794-17.101c4.855,0.273,12.509,0.581,22.464,0.581   c21.383,0,53.281-1.42,90.299-7.65c29.77-5.01,58.103-12.374,84.562-21.947c7.681,15.839,15.546,33.366,23.215,52.48   c-33.744,8.401-65.294,23.308-93.889,44.416c-41.222,30.427-64.944,65.125-73.815,79.75C90.489,352.924,70,306.813,70,256z    M132.566,395.011c7.024-11.898,30.346-47.827,72.005-78.578c27.748-20.481,58.39-34.865,91.173-42.812   c16.528,43.006,31.737,93.35,41.633,149.606C312.783,435.244,285.167,442,256,442C208.675,442,165.43,424.224,132.566,395.011z    M348.519,417.316c-9.918-54.802-24.769-103.985-40.911-146.268c41.377-7.956,86.13-5.923,133.188,6.062   C433.988,337.086,398.556,388.507,348.519,417.316z"/></g><g id="Ebene_2"/></svg>